{"title":"Hasee Toh Phasee (2014) Hindi Movie Official Trailer - Sidharth,","uid":9345241,"size":59027269,"categoryP":"video","categoryS":"movie_clips","magnet":"?xt=urn:btih:a9e186eac079442e6d7dca3e8c93ff9038bf934a&amp;dn=Hasee+Toh+Phasee+%282014%29+Hindi+Movie+Official+Trailer+-+Sidharth%2C&amp;tr=udp%3A%2F%2Ftracker.openbittorrent.com%3A80&amp;tr=udp%3A%2F%2Fopen.demonii.com%3A1337&amp;tr=udp%3A%2F%2Ftracker.coppersurfer.tk%3A6969&amp;tr=udp%3A%2F%2Fexodus.desync.com%3A6969","seeders":0,"leechers":0,"uploader":"Palash995","files":1,"time":1387027598,"description":"[center][b][size=200][color=red]Without Any reason..Don't Dislike the torrent.....please check and give your feedback[/color][/size]\n\n[img]http://i843.photobucket.com/albums/zz358/0Krish0/qiWyCf1pvj_zps682a8ccb.png[/img]\n\n[size=100][color=red]Hasee Toh Phasee (2014) Hindi Movie Official Trailer - Sidharth, Parineeti - HD 1080p[/color][/size]\n\n[img]http://pbs.twimg.com/media/BbSjT9GCIAA_0Ht.jpg[/img]\n\nCheck out the official trailer of Dharma Productions and Phantom Films' upcoming movie Hasee Toh Phasee. The film is directed by Vinil Mathew and stars Sidharth Malhotra as Nikhil and Parineeti Chopra as Meeta. Enjoy the ride as love goes cuckin frazy!\n\nHasee Toh Phasee is set to release on 7th Feb, 2014. \n\nScreenshots:-\n\n\n\n\n[img]http://img24.imageshack.us/img24/6808/0ick.jpg[/img]\n\n[img]http://img6.imageshack.us/img6/2959/lmsa.jpg[/img]\n\n[img]http://img689.imageshack.us/img689/7178/d6zl.jpg[/img]\n\n[img]http://img843.imageshack.us/img843/3172/d5mn.jpg[/img]\n\nMedia Info:-\n\nGeneral\nComplete name : Hasee Toh Phasee (2014) Hindi Movie Official Trailer - Sidharth, Parineeti - HD 1080p {DAKU RG} {GreatPalash}.mp4\nFormat : MPEG-4\nFormat profile : Base Media\nCodec ID : isom\nFile size : 56.3 MiB\nDuration : 2mn 10s\nOverall bit rate mode : Variable\nOverall bit rate : 3 626 Kbps\nWriting application : Lavf53.31.100\n\nVideo\nID : 1\nFormat : AVC\nFormat/Info : Advanced Video Codec\nFormat profile : &lt;a class=&quot;__cf_email__&quot; href=&quot;/cdn-cgi/l/email-protection&quot; data-cfemail=&quot;226a4b454a626e160c13&quot;&gt;[email&amp;#160;protected]&lt;/a&gt;&lt;script data-cfhash='f9e31' type=&quot;text/javascript&quot;&gt;\n/* &lt;![CDATA[ */!function(){try{var t=&quot;currentScript&quot;in document?document.currentScript:function(){for(var t=document.getElementsByTagName(&quot;script&quot;),e=t.length;e--;)if(t[e].getAttribute(&quot;data-cfhash&quot;))return t[e]}();if(t&amp;&amp;t.previousSibling){var e,r,n,i,c=t.previousSibling,a=c.getAttribute(&quot;data-cfemail&quot;);if(a){for(e=&quot;&quot;,r=parseInt(a.substr(0,2),16),n=2;a.length-n;n+=2)i=parseInt(a.substr(n,2),16)^r,e+=String.fromCharCode(i);e=document.createTextNode(e),c.parentNode.replaceChild(e,c)}t.parentNode.removeChild(t);}}catch(u){}}()/* ]]&gt; */&lt;/script&gt;\nFormat settings, CABAC : Yes\nFormat settings, ReFrames : 3 frames\nCodec ID : avc1\nCodec ID/Info : Advanced Video Coding\nDuration : 2mn 10s\nBit rate mode : Variable\nBit rate : 3 493 Kbps\nMaximum bit rate : 19.2 Mbps\nWidth : 1 920 pixels\nHeight : 1 080 pixels\nDisplay aspect ratio : 16:9\nFrame rate mode : Constant\nFrame rate : 25.000 fps\nStandard : PAL\nColor space : YUV\nChroma subsampling : 4:2:0\nBit depth : 8 bits\nScan type : Progressive\nBits/(Pixel*Frame) : 0.067\nStream size : 54.2 MiB (96%)\nColor primaries : BT.709\nTransfer characteristics : BT.709\nMatrix coefficients : BT.709\n\nAudio\nID : 2\nFormat : AAC\nFormat/Info : Advanced Audio Codec\nFormat profile : LC\nCodec ID : 40\nDuration : 2mn 10s\nBit rate mode : Constant\nBit rate : 126 Kbps\nChannel(s) : 2 channels\nChannel positions : Front: L R\nSampling rate : 44.1 KHz\nCompression mode : Lossy\nStream size : 1.95 MiB (3%)\n\n[IMG]http://imageshack.us/a/img89/4822/zka.gif[/IMG]\n\n[IMG]http://imageshack.us/a/img200/185/tj8.gif[/IMG]\n\n[IMG]http://imageshack.us/a/img593/9603/ua8.gif[/IMG]\n\n[IMG]http://imageshack.us/a/img707/5608/ysmp.png[/IMG][/b][/center]","torrent":{"xt":"urn:btih:a9e186eac079442e6d7dca3e8c93ff9038bf934a","amp;dn":"Hasee+Toh+Phasee+%282014%29+Hindi+Movie+Official+Trailer+-+Sidharth%2C","amp;tr":["udp%3A%2F%2Ftracker.openbittorrent.com%3A80","udp%3A%2F%2Fopen.demonii.com%3A1337","udp%3A%2F%2Ftracker.coppersurfer.tk%3A6969","udp%3A%2F%2Fexodus.desync.com%3A6969"],"infoHash":"a9e186eac079442e6d7dca3e8c93ff9038bf934a","infoHashBuffer":{"type":"Buffer","data":[169,225,134,234,192,121,68,46,109,125,202,62,140,147,255,144,56,191,147,74]},"announce":[],"urlList":[]}}